<?xml version="1.0" standalone="no"?>
<!DOCTYPE svg PUBLIC "-//W3C//DTD SVG 20010904//EN"
 "http://www.w3.org/TR/2001/REC-SVG-20010904/DTD/svg10.dtd">
<svg version="1.0" xmlns="http://www.w3.org/2000/svg"
 width="136.000000pt" height="136.000000pt" viewBox="0 0 136.000000 136.000000"
 preserveAspectRatio="xMidYMid meet">
<metadata>
Created by potrace 1.14, written by Peter Selinger 2001-2017
</metadata>
<g transform="translate(0.000000,136.000000) scale(0.100000,-0.100000)"
fill="#000000" stroke="none">
<path d="M862 1264 c-62 -16 -138 -49 -147 -64 -4 -7 -19 -4 -41 9 -74 44
-119 50 -404 51 l-270 1 2 -583 3 -583 138 0 c75 0 137 2 138 5 0 3 1 84 2
180 l2 175 130 1 c174 1 248 26 333 112 l43 44 62 -27 c144 -65 173 -80 200
-107 31 -32 36 -78 10 -103 -59 -60 -196 -42 -322 43 l-59 39 -69 -100 c-37
-56 -70 -105 -72 -110 -12 -31 181 -137 286 -157 94 -19 245 -8 317 21 72 29
152 104 186 174 44 91 38 258 -12 321 -63 81 -110 112 -296 193 -113 50 -139
67 -156 100 -13 28 -14 35 -2 69 25 75 214 59 337 -29 17 -12 32 -20 33 -18 2
2 29 55 61 117 l57 114 -23 16 c-137 97 -319 135 -467 96z m-354 -271 c83 -62
81 -211 -6 -269 -28 -19 -44 -22 -125 -21 l-92 2 -2 145 c-1 80 0 150 2 156 2
7 38 10 99 9 80 -1 101 -5 124 -22z"/>
</g>
</svg>
